<svg aria-hidden="true" style="position:absolute;width:0;height:0;overflow:hidden" xmlns="http://www.w3.org/2000/svg">
  <defs>
    <symbol id="icon-watch" viewBox="0 0 32 32">
      <path fill="#094581" style="fill:var(--color1, #094581)" d="m31.351 13.362-1.507-.995-1.486-3.586.363-1.771a1.432 1.432 0 0 0-.395-1.309l-2.027-2.027a1.436 1.436 0 0 0-1.318-.393l.009-.002-1.771.363-3.586-1.486-.996-1.508a1.44 1.44 0 0 0-1.202-.647H14.565a1.44 1.44 0 0 0-1.2.643l-.003.005-.995 1.507-3.586 1.486-1.771-.363a1.432 1.432 0 0 0-1.309.395L3.674 5.701a1.437 1.437 0 0 0-.392 1.318L3.28 7.01l.363 1.771-1.487 3.587-1.508.996a1.44 1.44 0 0 0-.647 1.202v2.867c0 .485.243.938.649 1.204l1.507.996 1.486 3.585-.363 1.771a1.432 1.432 0 0 0 .395 1.309l2.027 2.027c.341.343.834.491 1.309.395l1.771-.363 3.586 1.485.996 1.509c.267.405.72.649 1.204.647H17.437c.5 0 .941-.255 1.199-.642l.003-.005.996-1.508 3.585-1.486 1.771.363a1.432 1.432 0 0 0 1.309-.395l2.027-2.027c.343-.341.491-.834.395-1.309l-.363-1.771 1.485-3.586 1.509-.996c.405-.267.649-.719.647-1.204v-2.867c0-.485-.243-.938-.649-1.204zm-.418 4.072v.001c0 .13-.066.244-.167.311l-.001.001-1.645 1.086a.53.53 0 0 0-.198.239l-.001.003-1.611 3.887a.52.52 0 0 0-.03.315l-.001-.003.395 1.931a.372.372 0 0 1-.102.341l-2.027 2.027a.372.372 0 0 1-.344.103h.002l-1.931-.395a.537.537 0 0 0-.315.03l.003-.001-3.887 1.611a.534.534 0 0 0-.241.198l-.001.002-1.085 1.643a.376.376 0 0 1-.314.171h-2.869a.372.372 0 0 1-.311-.167l-.001-.001-1.086-1.645a.534.534 0 0 0-.239-.197l-.004-.001-3.887-1.611a.516.516 0 0 0-.315-.029l.003-.001-1.931.395a.375.375 0 0 1-.342-.102l-2.027-2.027a.372.372 0 0 1-.103-.344v.002l.395-1.931a.53.53 0 0 0-.03-.315l.001.003-1.611-3.887a.534.534 0 0 0-.198-.241l-.002-.001-1.642-1.085a.376.376 0 0 1-.171-.314v-2.871c0-.13.066-.244.167-.311l.001-.001 1.645-1.085a.54.54 0 0 0 .198-.238l.001-.004 1.611-3.888a.52.52 0 0 0 .03-.315l.001.003-.395-1.931a.37.37 0 0 1 .102-.342L6.45 4.426a.372.372 0 0 1 .344-.103h-.002l1.931.395a.541.541 0 0 0 .311-.029l3.888-1.611a.541.541 0 0 0 .24-.197l.001-.002 1.086-1.643a.376.376 0 0 1 .314-.171H17.432c.13 0 .245.067.312.168l.001.001 1.086 1.645a.534.534 0 0 0 .239.197l.004.001 3.887 1.611a.514.514 0 0 0 .314.029l-.003.001 1.932-.395a.371.371 0 0 1 .342.102l2.027 2.027c.09.09.128.218.103.341l-.395 1.931a.53.53 0 0 0 .03.315l-.001-.004 1.611 3.887a.534.534 0 0 0 .198.241l.002.001 1.643 1.085a.375.375 0 0 1 .171.315l-.001 2.868z"/>
      <path fill="#094581" style="fill:var(--color1, #094581)" d="M16 4.8C9.814 4.8 4.8 9.814 4.8 16c0 6.187 5.014 11.2 11.2 11.2S27.2 22.187 27.2 16C27.193 9.818 22.182 4.807 16 4.8zm.533 21.307v-1.04a.533.533 0 1 0-1.066 0v1.04c-5.168-.286-9.287-4.405-9.571-9.547l-.001-.026h1.039a.533.533 0 1 0 0-1.066H5.895c.286-5.168 4.405-9.286 9.546-9.571l.026-.001v1.039a.533.533 0 1 0 1.066 0V5.896c5.168.286 9.286 4.405 9.571 9.546l.001.026h-1.039a.533.533 0 1 0 0 1.066h1.039c-.286 5.168-4.404 9.287-9.546 9.572l-.026.001z"/>
      <path fill="#094581" style="fill:var(--color1, #094581)" d="M16.533 15.779V9.066a.533.533 0 1 0-1.066 0v6.933c0 .147.06.28.156.377l3.733 3.733a.531.531 0 0 0 .903-.383.532.532 0 0 0-.15-.371l-3.576-3.576z"/>
    </symbol>
    <symbol id="icon-phone" viewBox="0 0 32 32">
      <path fill="#094581" style="fill:var(--color1, #094581)" d="M2.133 15.467a2.656 2.656 0 0 0 1.28 2.267 2.373 2.373 0 0 0 .159 3.597l.005.004a2.388 2.388 0 0 0 2.353 4.1l-.016.006a1.603 1.603 0 0 0 1.552 1.227h2.35c.669 1.168 3.398 5.333 8.317 5.333 3.19 0 4.678-1.327 5.365-2.441a3.451 3.451 0 0 1 1.319-1.284l.018-.009c3.339-1.707 5.031-4.037 5.031-6.933 0-4.497-1.117-5.769-2.411-7.242a18.362 18.362 0 0 1-.896-1.078l-.267-.355c-1.376-1.843-2.49-3.327-4.427-3.557V1.601a1.6 1.6 0 0 0-1.6-1.6h-12.8a1.6 1.6 0 0 0-1.6 1.6v7.614a2.317 2.317 0 0 0-.799-.147h-.007A2.395 2.395 0 0 0 3.41 13.2l.001.001a2.662 2.662 0 0 0-1.28 2.267zm1.6 4a1.333 1.333 0 0 1 2.666 0 1.333 1.333 0 0 1-2.666 0zm0 3.733a1.333 1.333 0 0 1 2.666 0 1.333 1.333 0 0 1-2.666 0zm3.2 1.867v-.377c.055-.066.107-.135.155-.207.124.032.251.049.379.05h12.8c.181-.002.363-.035.533-.098v.631a.533.533 0 0 1-.533.533h-12.8a.533.533 0 0 1-.533-.533zm18.507-11.77.267.356c.324.431.64.793.948 1.142 1.198 1.364 2.145 2.443 2.145 6.538 0 2.462-1.498 4.475-4.45 5.982a4.519 4.519 0 0 0-1.749 1.664l-.011.02c-.542.882-1.758 1.934-4.457 1.934-3.733 0-6.108-2.855-7.055-4.267h9.188a1.6 1.6 0 0 0 1.6-1.6V16.55c.221.39.409.798.561 1.219a.535.535 0 1 0 1.012-.342l.001.004a8.258 8.258 0 0 0-1.728-2.875c-.624-.624-1.507-.373-2.845.012a39.08 39.08 0 0 1-1.395.381 3.735 3.735 0 0 1-1.152.178c-.437 0-.857-.073-1.248-.209l.027.008a1.344 1.344 0 0 1-.815-.874l-.002-.009a1.014 1.014 0 0 1 .775-1.258l.007-.001a12.488 12.488 0 0 0 3.753-1.69l-.045.028c.903-.553 1.618-.99 2.56-.99 1.746 0 2.686 1.259 4.108 3.164zM17.6 1.067V1.6a.533.533 0 0 1-.533.533h-6.4a.533.533 0 0 1-.533-.533v-.533h7.467zm-10.133 0h1.6V1.6a1.6 1.6 0 0 0 1.6 1.6h6.4a1.6 1.6 0 0 0 1.6-1.6v-.533h1.6c.295 0 .533.239.533.533v7.506a6.617 6.617 0 0 0-2.586 1.107 11.449 11.449 0 0 1-3.41 1.536 2.073 2.073 0 0 0-1.555 2.568l-.003-.014a2.409 2.409 0 0 0 1.429 1.603 4.73 4.73 0 0 0 1.644.288c.503 0 .988-.077 1.444-.22l-.034.009c.543-.135 1.017-.271 1.431-.389a5.642 5.642 0 0 1 1.623-.341l.016-.001v7.68a.533.533 0 0 1-.533.533h-12.8c-.01 0-.017-.003-.027-.004a2.183 2.183 0 0 0-.877-2.125l-.006-.004a2.374 2.374 0 0 0-.079-3.8l-.007-.005a2.63 2.63 0 0 0 .005-4.12l-.005-.004a2.37 2.37 0 0 0 .46-3.433l.003.004V1.597c0-.295.239-.533.533-.533zm-2.4 9.066a1.333 1.333 0 0 1 0 2.666 1.333 1.333 0 0 1 0-2.666zM4.8 13.867a1.6 1.6 0 1 1 0 3.2 1.6 1.6 0 1 1 0-3.2z"/>
      <path fill="#094581" style="fill:var(--color1, #094581)" d="M15.467 10.133A.533.533 0 0 0 16 9.6V8a.533.533 0 1 0-1.066 0v1.6c0 .295.239.533.533.533zm-5.348 1.262 1.387.8a.533.533 0 1 0 .536-.922l-.003-.001-1.387-.8a.533.533 0 1 0-.536.922l.003.001zm.268 5.938c.098 0 .19-.027.269-.073l-.003.001 1.387-.8a.533.533 0 1 0-.535-.922l.002-.001-1.387.8a.533.533 0 0 0 .266.995zm5.08 2.934a.533.533 0 0 0 .533-.533v-1.6a.533.533 0 1 0-1.066 0v1.6c0 .295.239.533.533.533z"/>
    </symbol>
    <symbol id="icon-placeholder" viewBox="0 0 32 32">
      <path fill="#094581" style="fill:var(--color1, #094581)" d="M16 13.867c2.059 0 3.733-1.675 3.733-3.733S18.058 6.401 16 6.401s-3.733 1.675-3.733 3.733 1.675 3.733 3.733 3.733zm0-6.4c1.47 0 2.667 1.196 2.667 2.667S17.47 12.801 16 12.801a2.67 2.67 0 0 1-2.667-2.666A2.67 2.67 0 0 1 16 7.468z"/>
      <path fill="#094581" style="fill:var(--color1, #094581)" d="m15.906 29.203 8.181-11.817c3.069-4.092 2.625-10.816-.949-14.39A10.127 10.127 0 0 0 15.934 0h-.029.002-.028a10.132 10.132 0 0 0-7.204 2.995C5.1 6.57 4.655 13.296 7.711 17.37l8.195 11.833zM9.427 3.749a9.075 9.075 0 0 1 6.453-2.683h.027-.001c2.446 0 4.747.953 6.477 2.683 3.227 3.227 3.625 9.3.839 13.013l-7.317 10.567-7.328-10.583c-2.773-3.697-2.375-9.771.85-12.996z"/>
      <path fill="#094581" style="fill:var(--color1, #094581)" d="M22.462 22.938a.533.533 0 0 0-.127 1.058h.003c5.61.66 8.596 2.439 8.596 3.47 0 1.447-5.681 3.467-14.933 3.467S1.068 28.914 1.068 27.466c0-1.03 2.987-2.81 8.596-3.47a.534.534 0 0 0-.127-1.059h.002c-5.617.661-9.538 2.524-9.538 4.529 0 2.253 5.495 4.533 16 4.533s16-2.281 16-4.533c0-2.005-3.922-3.868-9.538-4.529z"/>
    </symbol>
    <symbol id="icon-iron" viewBox="0 0 32 32">
      <path fill="#094581" style="fill:var(--color1, #094581)" d="M1.867 18.667h25.066a1.867 1.867 0 0 0 0-3.734h-.726a2.124 2.124 0 0 1 1.41-1.5l.015-.004a1.623 1.623 0 0 0 1.168-1.53V5.92a2.677 2.677 0 0 1 2.133 2.613v9.6a.533.533 0 1 0 1.066 0v-9.6a3.739 3.739 0 0 0-3.18-3.688l-.02-.003v-.576a1.602 1.602 0 0 0-1.207-1.545l-.011-.002-.685-1.712a1.598 1.598 0 0 0-1.482-1.008h-2.831c-.669 0-1.241.412-1.478.995l-.004.011-.664 1.661h-.706c-.16 0-15.684.149-18.584 12.41a1.867 1.867 0 0 0 .717 3.59zM22.094 1.402a.53.53 0 0 1 .493-.335H25.413a.53.53 0 0 1 .492.332l.001.004.506 1.265h-4.824l.506-1.265zm-2.361 2.33H27.2c.294 0 .533.239.533.534v7.63a.553.553 0 0 1-.414.513l-.004.001a3.196 3.196 0 0 0-2.201 2.503l-.003.019H2.287c2.946-11.048 17.298-11.2 17.445-11.2zM1.867 16h25.066a.8.8 0 1 1 0 1.6H1.867a.8.8 0 1 1 0-1.6z"/>
      <path fill="#094581" style="fill:var(--color1, #094581)" d="M4.32 13.816a.534.534 0 0 0 .709-.252l.001-.003c1.162-2.338 3.012-4.187 5.283-5.317l.068-.03a.534.534 0 1 0-.497-.943l.003-.001c-2.545 1.269-4.558 3.287-5.786 5.763l-.033.074a.535.535 0 0 0 .251.709l.003.001zm11.147-2.083h9.066a1.6 1.6 0 0 0 1.6-1.6V7.467a1.6 1.6 0 0 0-1.6-1.6h-5.805a1.6 1.6 0 0 0-1.014.362l-3.26 2.666a1.6 1.6 0 0 0 1.011 2.838zm3.2-1.066.64-.854a.533.533 0 0 1 .426-.213h2.134c.168 0 .326.079.426.213l.64.854h-4.266zm-3.536-.947 3.259-2.666a.53.53 0 0 1 .338-.121h5.805c.294 0 .534.239.534.534v2.666a.535.535 0 0 1-.534.534h-.266l-1.12-1.494a1.606 1.606 0 0 0-1.28-.64h-2.134c-.521.001-.985.25-1.277.636l-.003.004-1.12 1.494h-1.868a.533.533 0 0 1-.337-.946l.001-.001h.003zm-3.398-2.253a.533.533 0 1 0 0-1.066.533.533 0 1 0 0 1.066zm-8 21.333a3.7 3.7 0 0 0 1.03-.146 4.26 4.26 0 0 0 5.652 1.841l-.025.011c.875.922 2.109 1.495 3.477 1.495s2.602-.573 3.475-1.493l.002-.002c.543.27 1.183.428 1.86.428a4.253 4.253 0 0 0 3.756-2.256l.011-.023a3.733 3.733 0 1 0 1.03-7.323.533.533 0 1 0 0 1.066h.005a2.667 2.667 0 1 1-1.114 5.091l.017.007a.534.534 0 0 0-.717.294l-.001.004a3.197 3.197 0 0 1-2.987 2.07 3.17 3.17 0 0 1-1.71-.497l.013.008a.534.534 0 0 0-.703.121l-.001.001a3.721 3.721 0 0 1-5.866.008l-.006-.008a.532.532 0 0 0-.705-.12l.002-.001a3.191 3.191 0 0 1-4.677-1.56l-.007-.022a.533.533 0 0 0-.721-.297l.003-.001a2.667 2.667 0 1 1-1.097-5.098h.006a.533.533 0 1 0 0-1.066 3.733 3.733 0 0 0 0 7.466z"/>
      <path fill="#094581" style="fill:var(--color1, #094581)" d="M10.013 19.93a.532.532 0 0 0-.751-.075l.001-.001-5.867 4.8a.534.534 0 1 0 .676.825l-.001.001 5.867-4.8a.534.534 0 0 0 .074-.752l.001.001zM24 25.6h.001a.533.533 0 0 0 .338-.945l-.001-.001-5.866-4.8a.533.533 0 0 0-.676.825l.001.001 5.866 4.8c.091.075.208.12.336.12H24zm-10.667-5.333V27.2a.533.533 0 1 0 1.066 0v-6.933a.533.533 0 1 0-1.066 0zm-5.074 7.39a.535.535 0 0 0 .731-.18l.001-.002 1.6-2.666a.534.534 0 0 0-.914-.553l-.001.002-1.6 2.667a.535.535 0 0 0 .18.731l.002.001zm9.066-3.58a.533.533 0 0 0-.181.733l-.001-.002 1.6 2.667a.533.533 0 1 0 .912-.551l.001.002-1.6-2.667a.534.534 0 0 0-.734-.182l.002-.001z"/>
    </symbol>
    <symbol id="icon-washing-machine" viewBox="0 0 32 32">
      <path fill="#094581" style="fill:var(--color1, #094581)" d="M30.4 0H12.8a1.6 1.6 0 0 0-1.6 1.6v15.467H1.068a1.067 1.067 0 0 0-1.047 1.276l-.001-.007 2.24 11.502A2.687 2.687 0 0 0 4.892 32h9.95c1.296 0 2.378-.92 2.627-2.142l.003-.017.513-2.641h12.414a1.6 1.6 0 0 0 1.6-1.6v-24a1.6 1.6 0 0 0-1.6-1.6zm.533 1.6v3.733H20.267V1.067H30.4c.294 0 .533.239.533.533zM12.8 1.067h6.4v4.266h-6.933V1.6c0-.294.239-.533.533-.533zM12.267 6.4h18.666v16.533H18.818l.295-1.514a7.134 7.134 0 0 0 2.487.447 7.192 7.192 0 1 0-6.774-4.75l-.016-.05h-2.543V6.399zm3.697 10.667a6.06 6.06 0 0 1-.498-2.427 6.16 6.16 0 1 1 3.814 5.698l.041.015.208-1.067a5.068 5.068 0 1 0-2.913-3.704l-.005-.031c.098.531.28 1.043.54 1.517h-1.187zM17.61 14.9c-.005-.077-.01-.154-.01-.234a4 4 0 0 1 7.888-.934l.006.027a5.298 5.298 0 0 0-2.022-.427h-.004a4.463 4.463 0 0 0-2.236.63l.02-.011a7.982 7.982 0 0 1-3.633.949h-.009zm.8 2.167a3.976 3.976 0 0 1-.582-1.084l-.009-.028a9.015 9.015 0 0 0 3.956-1.072l-.048.024a3.461 3.461 0 0 1 1.74-.506 4.57 4.57 0 0 1 2.141.583l-.023-.012a3.982 3.982 0 0 1-5.88 3.205l.021.01a1.059 1.059 0 0 0-1.057-1.12h-.258zm-2.799 1.066 3.056-.004-1.373 7.049a7.846 7.846 0 0 1-.925-.569l.024.016a5.345 5.345 0 0 0-3.421-1.158h.004l-.079-.001a5.342 5.342 0 0 0-3.342 1.168l.011-.008a4.283 4.283 0 0 1-2.729.975l-.089-.001h.004l-.082.001a4.28 4.28 0 0 1-2.73-.979l.007.006a6.097 6.097 0 0 0-1.75-.928l-.043-.013-1.081-5.553h14.539zm.816 11.505a1.617 1.617 0 0 1-1.582 1.295H4.891c-.779 0-1.43-.552-1.581-1.286l-.002-.01-.914-4.705c.33.168.646.36.948.575a5.332 5.332 0 0 0 3.332 1.161l.083-.001h-.004l.079.001a5.354 5.354 0 0 0 3.348-1.17l-.011.008a4.274 4.274 0 0 1 2.812-.973h-.004l.085-.001a4.3 4.3 0 0 1 2.738.98l-.007-.006c.404.294.837.546 1.293.753l-.06.305-.596 3.074zM30.4 26.133H18.194L18.61 24h12.323v1.6a.533.533 0 0 1-.533.533z"/>
      <path fill="#094581" style="fill:var(--color1, #094581)" d="M13.867 3.733H17.6a.533.533 0 0 0 0-1.066h-3.733a.533.533 0 0 0 0 1.066zm12.8 0a.533.533 0 0 0 0-1.066.533.533 0 0 0 0 1.066zm2.133 0a.533.533 0 0 0 0-1.066.533.533 0 0 0 0 1.066zM3.2 20.267h1.6a.533.533 0 1 0 0-1.066H3.2a.533.533 0 1 0 0 1.066zm3.733 0h9.6a.533.533 0 1 0 0-1.066h-9.6a.533.533 0 1 0 0 1.066z"/>
    </symbol>
    <symbol id="icon-clean-clothes" viewBox="0 0 32 32">
      <path fill="#094581" style="fill:var(--color1, #094581)" d="M16 8.869c-2.089 0-3.859-.938-4.21-2.226a1.033 1.033 0 0 0-.518-.651l-.006-.003a1.1 1.1 0 0 0-.892-.057l.008-.002-4.991 1.773a1.595 1.595 0 0 0-.84.675l-.004.007-4.314 7.103a1.568 1.568 0 0 0-.234.829c0 .385.137.738.366 1.012l-.002-.003c.848 1.028 3.62 2.034 6.571 2.412v9.595C6.934 31.3 11.756 32 16.268 32c5.592 0 8.8-.972 8.8-2.667v-9.676c2.715-.44 5.8-1.393 6.57-2.33a1.584 1.584 0 0 0 .131-1.839l-4.313-7.101a1.586 1.586 0 0 0-.831-.678l-.011-.003-1.418-.506a3.95 3.95 0 0 1 2.545-.8h-.007a.533.533 0 1 0 0-1.066c-4.202 0-4.266-4.605-4.266-4.8V.527A.533.533 0 0 0 22.401.52v.014c0 .196-.049 4.8-4.267 4.8a.533.533 0 1 0 0 1.066l.091-.001c.697 0 1.355.169 1.935.468l-.024-.011C19.656 8.034 17.97 8.869 16 8.869zm10.542.069 4.315 7.105a.517.517 0 0 1-.043.605l.001-.001c-.407.495-2.743 1.427-5.748 1.93V16a.533.533 0 1 0-1.066 0v13.333c0 .502-1.947 1.6-7.733 1.6-6.232 0-8.267-1.19-8.267-1.6V16a.533.533 0 1 0-1.066 0v2.664c-3-.401-5.24-1.4-5.75-2.018a.518.518 0 0 1-.037-.606l-.001.002 4.315-7.106a.521.521 0 0 1 .278-.224l.004-.001 5.018-1.793c.48 1.777 2.637 3.018 5.24 3.018 2.318 0 4.277-.986 5.006-2.437 1.363 1.375 1.395 3.568 1.395 3.701v.007a.534.534 0 0 0 1.067.008V11.2a6.199 6.199 0 0 1 .953-3.173l-.015.026 1.86.66c.118.041.214.12.276.222l.001.002zm-3.609-5.756a5.1 5.1 0 0 0 2.344 2.672l.027.013a5.097 5.097 0 0 0-2.359 2.65l-.012.035a5.1 5.1 0 0 0-2.344-2.672l-.027-.013a5.097 5.097 0 0 0 2.359-2.65l.012-.035z"/>
      <path fill="#094581" style="fill:var(--color1, #094581)" d="M18.133 19.733c0-.152.054-3.733 3.2-3.733a.533.533 0 1 0 0-1.066c-3.146 0-3.2-3.581-3.2-3.733v-.003a.533.533 0 0 0-1.066.001v.002c0 .152-.054 3.733-3.2 3.733a.533.533 0 1 0 0 1.066c3.146 0 3.2 3.582 3.2 3.733v.003a.533.533 0 0 0 1.066-.001v-.002zm-2.147-4.266a4.103 4.103 0 0 0 1.604-1.827l.01-.026c.345.78.901 1.413 1.597 1.843l.017.01a4.1 4.1 0 0 0-1.604 1.826l-.01.026a4.104 4.104 0 0 0-1.597-1.842l-.018-.01zm3.747 5.333v1.067a.533.533 0 1 0 1.066 0V20.8a.533.533 0 1 0-1.066 0zm.534 2.667h-.001a.533.533 0 0 0-.533.533v1.067a.533.533 0 1 0 1.066 0V24a.533.533 0 0 0-.533-.533zM22.4 22.4h-1.067a.533.533 0 0 0 0 1.066H22.4a.533.533 0 0 0 0-1.066zm-3.2 0h-1.067a.533.533 0 0 0 0 1.066H19.2a.533.533 0 0 0 0-1.066z"/>
    </symbol>
    <symbol id="icon-dandruff" viewBox="0 0 32 32">
      <path fill="#27698a" style="fill:var(--color2, #27698a)" d="M8.836 7.283a1.178 1.178 0 0 0-1.672 0 8.055 8.055 0 0 0-2.307 6.585l-.003-.036a1.184 1.184 0 1 0 2.351-.242l.001.006a5.706 5.706 0 0 1 1.631-4.641 1.178 1.178 0 0 0 0-1.672z"/>
      <path fill="#27698a" style="fill:var(--color2, #27698a)" d="M13.517 0C6.064 0 0 6.064 0 13.517s6.064 13.517 13.517 13.517 13.517-6.064 13.517-13.517S20.97 0 13.517 0zm0 24.671c-6.149 0-11.153-5.004-11.153-11.153S7.368 2.365 13.517 2.365 24.67 7.369 24.67 13.518s-5.004 11.153-11.153 11.153z"/>
      <path fill="#27698a" style="fill:var(--color2, #27698a)" d="m31.653 29.981-8.591-8.591a1.182 1.182 0 1 0-1.672 1.672l8.591 8.591a1.175 1.175 0 0 0 1.672 0 1.177 1.177 0 0 0 0-1.67z"/>
    </symbol>
    <symbol id="icon-star" viewBox="0 0 32 32">
      <path fill="#ffc107" style="fill:var(--color3, #ffc107);stroke:var(--color3, #ffc107)" stroke="#ffc107" stroke-width="2" d="m7.432 20.456-1.69 10.356a1 1 0 0 0 1.477 1.034l-.005.003L16 26.993l-8.568-6.536zm12.976-10.09.226.484.528.08 9.836 1.502L23.5 20.12l.08.5 1.69 10.354L16 25.85l-.484.266-8.786 4.856 1.688-10.356.082-.498-.352-.36L1 12.432l10.364-1.582.226-.484 4.386-9.34a.164.164 0 0 1 .047 0h-.001l4.386 9.34z"/>
    </symbol>
    <symbol id="icon-pdf" viewBox="0 0 32 32">
      <path fill="#094581" style="fill:var(--color1, #094581)" d="M23.001 16H19a.999.999 0 0 0-.999.999V25a1 1 0 0 0 1.001.999h4a2 2 0 0 0 2-2v-6a2 2 0 0 0-2-2zm0 8H20v-6h3.001v6zM32 18v-2h-5.001a.999.999 0 0 0-.999.999v9h2v-4h4v-2h-4v-2h4z"/>
      <path fill="#094581" style="fill:var(--color1, #094581)" d="M2 28.999v-26A1 1 0 0 1 3.001 2H18v4a2 2 0 0 0 2 2h4v2.999h2V6.994a.996.996 0 0 0-.29-.704l-6-6a1 1 0 0 0-.705-.29H2.999A3 3 0 0 0 0 2.999V29a2.999 2.999 0 0 0 2.999 2.999h7v-2H2.998a1 1 0 0 1-.999-1.001z"/>
      <path fill="#094581" style="fill:var(--color1, #094581)" d="M15.001 16H11a.999.999 0 0 0-.999.999v9h2v-3.001h3.001a2 2 0 0 0 1.999-2v-2.999a2 2 0 0 0-1.999-2zm0 5.001H12V18h3.001v3.001z"/>
    </symbol>
    <symbol id="icon-xls" viewBox="0 0 32 32">
      <path fill="#094581" style="fill:var(--color1, #094581)" d="M2 28.999v-26A1 1 0 0 1 3.001 2H18v4a2 2 0 0 0 2 2h4v2.999h2V6.994a.996.996 0 0 0-.29-.704l-6-6a1 1 0 0 0-.705-.29H2.999A3 3 0 0 0 0 2.999V29a2.999 2.999 0 0 0 2.999 2.999h7v-2H2.998a1 1 0 0 1-.999-1.001z"/>
      <path fill="#094581" style="fill:var(--color1, #094581)" d="M13.109 16.55 12 18.759l-1.109-2.209a1 1 0 0 0-.892-.55H8v2h1.38l1.5 3.001L9.38 24H8v2h2c.387-.002.722-.223.887-.545l.003-.006 1.11-2.21 1.109 2.21c.168.328.503.549.89.55h2v-2h-1.38l-1.5-3.001 1.5-2.999h1.38v-2h-2a1.002 1.002 0 0 0-.887.545l-.003.006zM29.001 20h-2a1 1 0 0 1 0-2h2A1 1 0 0 1 30 19.001h2A3 3 0 0 0 28.999 16h-2a3.001 3.001 0 0 0-.003 6h2.003a1 1 0 0 1 0 2h-2a.999.999 0 0 1-.999-.999V23h-2a3 3 0 0 0 3.001 3.001h2a3.001 3.001 0 0 0 .003-6h-.003zm-10-4h-2v9.001A1 1 0 0 0 18 26h5.001v-2h-4v-8z"/>
    </symbol>
    <symbol id="icon-ukraine" viewBox="0 0 32 32">
      <path fill="#ffda44" style="fill:var(--color4, #ffda44)" d="M16 32c8.836 0 16-7.164 16-16S24.836 0 16 0 0 7.164 0 16s7.164 16 16 16z"/>
      <path fill="#338af3" style="fill:var(--color5, #338af3)" d="M0 16C0 7.164 7.164 0 16 0s16 7.164 16 16z"/>
    </symbol>
    <symbol id="icon-telegram" viewBox="0 0 32 32">
      <path  d="M31.448 5.726A5.823 5.823 0 0 0 26.296.551L26.27.549C23.189.199 19.618 0 16 0S8.811.2 5.296.588l.433-.039A5.826 5.826 0 0 0 .546 5.702l-.002.026c-.348 3.081-.546 6.653-.546 10.27s.198 7.189.585 10.704l-.039-.434a5.826 5.826 0 0 0 5.15 5.182l.026.002a96.082 96.082 0 0 0 20.541 0 5.826 5.826 0 0 0 5.185-5.15l.002-.026c.348-3.082.547-6.655.547-10.274s-.199-7.192-.585-10.708l.039.434zm-5.426 2.192-3.403 16.389a.545.545 0 0 1-.856.329l.001.001-4.651-3.373a.764.764 0 0 0-.939.027l.001-.001-2.576 2.102a.546.546 0 0 1-.863-.257l-.001-.004-1.795-5.76-4.624-1.728a.545.545 0 0 1-.008-1.021l.004-.001 18.981-7.323a.545.545 0 0 1 .731.623l.001-.004z"/>
      <path  d="m21.483 10.88-9.04 5.568a.913.913 0 0 0-.398 1.031l-.002-.006.979 3.437a.233.233 0 0 0 .456-.031v-.001l.254-1.883c.051-.368.226-.688.479-.924l.001-.001 7.461-6.936a.159.159 0 1 0-.192-.252z"/>
    </symbol>
    <symbol id="icon-viber" viewBox="0 0 32 32">
      <path  d="M23.552 11.552c-.139-.544-.544-1.165-1.054-1.696-.624-.656-1.424-1.19-2.125-1.347-1.315-.263-2.827-.413-4.374-.413s-3.059.15-4.521.437l.148-.024c-1.274.283-2.867 1.819-3.178 3.043-.248 1.079-.39 2.319-.39 3.592s.142 2.513.412 3.704l-.021-.112c.25.989 1.339 2.181 2.416 2.749.24.131.496.23.762.294.056.01.098.057.098.115V25.388a.192.192 0 0 0 .333.131l1.661-1.701 1.558-1.6a.11.11 0 0 1 .082-.035h.005c1.68.045 3.36-.091 5.011-.405 1.272-.285 2.867-1.818 3.179-3.045.52-2.365.52-4.816 0-7.181zm-3.134 7.357a2.726 2.726 0 0 1-1.142 1.267l-.013.007c-.162.069-.33.122-.501.16-.195-.061-.379-.101-.544-.171a13.81 13.81 0 0 1-3.814-2.254l.022.018a9.62 9.62 0 0 1-.95-.933 12.333 12.333 0 0 1-1.787-2.703l-.032-.073c-.232-.474-.429-.966-.629-1.456-.182-.446.088-.907.363-1.24.267-.304.591-.55.958-.721l.018-.007a.627.627 0 0 1 .783.181l.001.002a10.27 10.27 0 0 1 1.213 1.699.81.81 0 0 1-.225 1.09l-.003.002a2.878 2.878 0 0 0-.262.206l.003-.003a.875.875 0 0 0-.195.208l-.002.003a.565.565 0 0 0-.042.509l-.001-.004a4.776 4.776 0 0 0 1.668 2.327l.012.009c.27.189.56.349.864.475.183.1.4.159.631.159h.021-.001c.397-.048.528-.486.805-.714a.757.757 0 0 1 .911-.036l-.003-.002c.294.182.578.386.862.586.28.192.549.4.808.619a.644.644 0 0 1 .2.796l.002-.004zm-2.61-4.363a.34.34 0 0 1-.022-.094v-.002a2.592 2.592 0 0 0-.058-.379l.003.017a1.056 1.056 0 0 0-.386-.609l-.002-.002a1.07 1.07 0 0 0-.308-.153l-.008-.002c-.144-.038-.294-.027-.437-.062a.272.272 0 0 1-.217-.313v.002a.287.287 0 0 1 .28-.228h.016-.001c.832.064 1.456.462 1.616 1.357.016.083.027.166.032.251a.667.667 0 0 1-.001.232l.001-.004a.234.234 0 0 1-.191.181h-.033l-.024.001a.273.273 0 0 1-.26-.191l-.001-.002zm-.266-2.256a3.221 3.221 0 0 0-.866-.265l-.019-.002c-.134-.022-.269-.037-.403-.053a.257.257 0 0 1-.242-.29v.001a.253.253 0 0 1 .283-.249h-.001a3.693 3.693 0 0 1 1.533.4 3.086 3.086 0 0 1 1.355 1.336c.159.312.276.674.332 1.056l.002.019c.01.048.016.098.021.147.01.11.013.218.022.352v.053a.73.73 0 0 1-.024.165l.001-.005a.267.267 0 0 1-.501.024l-.001-.002a.758.758 0 0 1-.028-.202v-.023.001l.001-.076c0-.495-.133-.96-.366-1.359l.007.013a2.684 2.684 0 0 0-1.094-1.033l-.015-.007zm3.004 3.355c-.182 0-.272-.152-.283-.32-.024-.334-.043-.67-.088-1a4.026 4.026 0 0 0-.581-1.591l.01.017a4.208 4.208 0 0 0-2.774-1.921l-.026-.004c-.261-.046-.528-.056-.792-.083-.168-.019-.387-.03-.424-.237a.288.288 0 0 1 .282-.323.681.681 0 0 1 .135 0h-.003.058a4.817 4.817 0 0 1 3.931 2.163l.011.018c.344.534.578 1.134.688 1.76.069.395.094.8.125 1.197a.28.28 0 0 1-.266.325z"/>
      <path  d="M31.456 5.723A5.826 5.826 0 0 0 26.301.548l-.026-.002c-3.082-.35-6.654-.549-10.273-.549S8.811.196 5.296.585l.433-.039A5.826 5.826 0 0 0 .546 5.698l-.002.026c-.348 3.082-.546 6.654-.546 10.273s.199 7.191.585 10.707l-.039-.434a5.826 5.826 0 0 0 5.152 5.183l.026.002a96.259 96.259 0 0 0 20.546 0 5.826 5.826 0 0 0 5.183-5.152l.002-.026C31.801 23.194 32 19.62 32 16s-.199-7.194-.586-10.711l.039.434zm-6.213 13.392v.022c-.464 1.89-2.57 3.914-4.502 4.336h-.022a25.08 25.08 0 0 1-4.718.451c-.462 0-.928-.014-1.389-.043l-2.134 2.222a.848.848 0 0 1-1.456-.587v-2.111a5.382 5.382 0 0 1-1.436-.667l.02.013c-1.341-.853-2.506-2.269-2.84-3.614v-.021c-.275-1.194-.432-2.564-.432-3.972s.157-2.778.456-4.096l-.024.124v-.024c.466-1.888 2.57-3.912 4.507-4.334h.022c1.416-.285 3.045-.449 4.711-.449s3.295.163 4.87.475l-.159-.026h.01c1.045.227 2.138.922 2.995 1.818.728.755 1.296 1.653 1.509 2.523v.022c.579 2.614.584 5.323.011 7.939h.002z"/>
    </symbol>
    <symbol id="icon-instagram" viewBox="0 0 32 32">
      <path  d="M20.042 8.013h-8.085a3.944 3.944 0 0 0-3.944 3.944v8.085a3.944 3.944 0 0 0 3.944 3.944h8.085a3.946 3.946 0 0 0 3.946-3.946v-8.083a3.944 3.944 0 0 0-3.944-3.944h-.002zM16 21.173a5.174 5.174 0 0 1 0-10.348 5.174 5.174 0 0 1 0 10.348zm5.202-9.069a1.273 1.273 0 0 1 0-2.546 1.271 1.271 0 1 1 0 2.544zM16 12.838a3.162 3.162 0 1 0 0 6.324 3.162 3.162 0 0 0 0-6.324zm4.042-4.825h-8.085a3.944 3.944 0 0 0-3.944 3.944v8.085a3.944 3.944 0 0 0 3.944 3.944h8.085a3.946 3.946 0 0 0 3.946-3.946v-8.083a3.944 3.944 0 0 0-3.944-3.944h-.002zM16 21.173a5.174 5.174 0 0 1 0-10.348 5.174 5.174 0 0 1 0 10.348zm5.202-9.069a1.273 1.273 0 0 1 0-2.546 1.271 1.271 0 1 1 0 2.544zM16 12.838a3.162 3.162 0 1 0 0 6.324 3.162 3.162 0 0 0 0-6.324zm15.454-7.116A5.838 5.838 0 0 0 26.302.548l-.026-.002C23.194.198 19.622 0 16.003 0S8.812.199 5.296.585L5.73.546a5.837 5.837 0 0 0-5.185 5.15l-.002.026c-.348 3.082-.546 6.654-.546 10.272S.195 23.185.582 26.7l-.039-.434a5.837 5.837 0 0 0 5.151 5.186l.026.002a96.259 96.259 0 0 0 20.546 0 5.837 5.837 0 0 0 5.183-5.153l.002-.026c.348-3.083.547-6.657.547-10.277s-.199-7.194-.586-10.711l.039.434zM25.998 20.04A5.963 5.963 0 0 1 20.042 26h-8.084A5.966 5.966 0 0 1 6 20.04v-8.084a5.964 5.964 0 0 1 5.958-5.957h8.083a5.963 5.963 0 0 1 5.958 5.956v8.084zM20.042 8.013h-8.085a3.944 3.944 0 0 0-3.944 3.944v8.085a3.944 3.944 0 0 0 3.944 3.944h8.085a3.946 3.946 0 0 0 3.946-3.946v-8.083a3.944 3.944 0 0 0-3.944-3.944h-.002zM16 21.173a5.174 5.174 0 0 1 0-10.348 5.174 5.174 0 0 1 0 10.348zm5.202-9.069a1.273 1.273 0 0 1 0-2.546 1.271 1.271 0 1 1 0 2.544zM16 12.838a3.162 3.162 0 1 0 0 6.324 3.162 3.162 0 0 0 0-6.324z"/>
    </symbol>
    <symbol id="icon-facebook" viewBox="0 0 32 32">
      <path d="M31.454 5.723A5.838 5.838 0 0 0 26.303.548l-.026-.002C23.195.198 19.623 0 16.004 0S8.813.199 5.297.585l.434-.039A5.84 5.84 0 0 0 .546 5.697l-.002.026c-.348 3.082-.546 6.654-.546 10.273s.199 7.191.585 10.707l-.039-.434a5.837 5.837 0 0 0 5.151 5.183l.026.002c3.082.348 6.654.546 10.273.546s7.191-.198 10.707-.585l-.434.039a5.838 5.838 0 0 0 5.183-5.151l.002-.026c.348-3.083.547-6.657.547-10.277s-.199-7.194-.586-10.711l.039.434zM21.07 14.107l-.323 2.784a.521.521 0 0 1-.512.469h-2.911l-.014 8.264v.003a.374.374 0 0 1-.363.373h-2.948a.368.368 0 0 1-.34-.233l-.001-.003a.368.368 0 0 1-.023-.127v-.018.001-8.261h-2.182a.523.523 0 0 1-.517-.523v-.005l-.01-2.787v-.008c0-.287.231-.52.517-.523h2.192v-2.69c0-3.125 1.856-4.824 4.576-4.824h2.229a.523.523 0 0 1 .518.523V8.883a.525.525 0 0 1-.518.525h-1.368c-1.478 0-1.765.726-1.765 1.776v2.328h3.248a.527.527 0 0 1 .514.594v-.003z"/>
    </symbol>

    <symbol id="mobile-burger-menu" width="40" height="40">
      <path  d="M8 14.667V12h24v2.667H8Zm0 6.666h24v-2.666H8v2.666ZM8 28h24v-2.667H8V28Z" />
    </symbol>
  </defs>
</svg>
