<svg width="24" height="24" fill="none" xmlns="http://www.w3.org/2000/svg"><g clip-path="url(#a)" fill="#27698A"><path d="M6.627 5.462a.886.886 0 0 0-1.254 0 6.06 6.06 0 0 0-1.733 4.912.887.887 0 1 0 1.764-.177 4.293 4.293 0 0 1 1.223-3.481.886.886 0 0 0 0-1.254Z"/><path d="M10.138 0C4.548 0 0 4.548 0 10.138s4.548 10.138 10.138 10.138 10.138-4.548 10.138-10.138S15.728 0 10.138 0Zm0 18.503c-4.612 0-8.365-3.753-8.365-8.365s3.753-8.365 8.365-8.365 8.365 3.753 8.365 8.365-3.753 8.365-8.365 8.365Z"/><path d="m23.74 22.486-6.443-6.443a.886.886 0 1 0-1.254 1.254l6.443 6.443a.884.884 0 0 0 1.254 0 .886.886 0 0 0 0-1.253Z"/></g><defs><clipPath id="a"><path fill="#fff" d="M0 0h24v24H0z"/></clipPath></defs></svg>