<svg width="30" height="30" fill="none" xmlns="http://www.w3.org/2000/svg"><path d="M16.786 11.082a2.609 2.609 0 1 0 0-5.218 2.609 2.609 0 0 0 0 5.218z" fill="url(#a)"/><path d="M22.13 15.489a1.956 1.956 0 1 0 0-3.912 1.956 1.956 0 0 0 0 3.912z" fill="url(#b)"/><path d="M24.346 8.357a2.5 2.5 0 1 0 0-4.999 2.5 2.5 0 0 0 0 4.999z" fill="url(#c)"/><path d="M24.89 9.521a11.304 11.304 0 1 1-4.3-4.348 3.804 3.804 0 0 1 2.304-2.928 15 15 0 1 0 4.953 5.012 3.807 3.807 0 0 1-2.957 2.264z" fill="#DFDDDD"/><path d="M14.884 16.952c-1.354-1.511-1.407-2.935-1.515-3.479-.132-.652-.606-2.243-.945-2.767-1.447-2.233-3.975-2.282-5.065-.672-1.09 1.61-1.192 2.377-1.381 3.765a9.24 9.24 0 0 0 18.18 3.2c-2.732 2.686-7.094 2.384-9.274-.047z" fill="url(#d)"/><defs><radialGradient id="a" cx="0" cy="0" r="1" gradientUnits="userSpaceOnUse" gradientTransform="rotate(122.797 -10.71 .637) scale(3.10998 3.64128)"><stop stop-color="#D2F3FF"/><stop offset=".448" stop-color="#74BAD9"/><stop offset="1" stop-color="#0074AB"/></radialGradient><radialGradient id="b" cx="0" cy="0" r="1" gradientUnits="userSpaceOnUse" gradientTransform="matrix(-.56715 2.24134 -2.9749 -.75276 -21.306 17.801)"><stop stop-color="#D2F3FF"/><stop offset=".448" stop-color="#74BAD9"/><stop offset="1" stop-color="#0074AB"/></radialGradient><radialGradient id="c" cx="0" cy="0" r="1" gradientUnits="userSpaceOnUse" gradientTransform="matrix(0 2.89299 -3.68605 0 -5.538 24.784)"><stop stop-color="#D2F3FF"/><stop offset=".448" stop-color="#74BAD9"/><stop offset="1" stop-color="#0074AB"/></radialGradient><linearGradient id="d" x1="8.632" y1="10.126" x2="16.705" y2="23.976" gradientUnits="userSpaceOnUse"><stop stop-color="#0F97D8"/><stop offset="1" stop-color="#094581"/></linearGradient></defs></svg>